<svg width="29" height="30" viewBox="0 0 29 30" fill="none" xmlns="http://www.w3.org/2000/svg">
<g clip-path="url(#clip0_2_295)">
<path d="M8.79564 28.5613C8.23245 28.1866 7.7333 27.7236 7.31738 27.1902C6.85988 26.6395 6.43599 26.0618 6.04801 25.4602C5.13757 24.1264 4.42357 22.6686 3.92793 21.1316C3.33252 19.3463 3.04419 17.6351 3.04419 15.9613C3.04419 14.0921 3.44857 12.4603 4.23947 11.0891C4.82575 10.0174 5.68774 9.12186 6.73626 8.49505C7.75239 7.86391 8.91994 7.51852 10.1159 7.49526C10.5346 7.49526 10.9854 7.55596 11.4638 7.67201C11.8075 7.76931 12.2262 7.92285 12.7377 8.11388C13.3884 8.36472 13.7464 8.51826 13.8678 8.55575C14.2489 8.69501 14.5694 8.75571 14.8211 8.75571C15.0122 8.75571 15.2818 8.69501 15.5879 8.60217C15.7602 8.54147 16.0852 8.43435 16.5502 8.23528C17.0109 8.06746 17.3733 7.92374 17.6616 7.81662C18.1035 7.68629 18.5311 7.56578 18.9122 7.50508C19.3641 7.43384 19.8227 7.41497 20.2789 7.44884C21.0695 7.50052 21.8482 7.66804 22.59 7.94606C23.8032 8.43435 24.7842 9.19669 25.5144 10.2804C25.2058 10.4706 24.9161 10.69 24.6494 10.9356C24.0688 11.4503 23.5743 12.0545 23.1845 12.7254C22.6751 13.6422 22.411 14.675 22.4177 15.7239C22.4365 17.012 22.7668 18.1466 23.4175 19.1276C23.8959 19.8547 24.5177 20.4765 25.2448 20.9549C25.617 21.2057 25.9375 21.378 26.2446 21.4941C26.1009 21.9404 25.9473 22.3724 25.7661 22.8009C25.3551 23.7618 24.857 24.683 24.278 25.553C23.7621 26.302 23.3577 26.8599 23.0506 27.2312C22.5722 27.7981 22.1115 28.231 21.6465 28.5327C21.135 28.872 20.5306 29.0532 19.9165 29.0532C19.5005 29.0691 19.0847 29.0188 18.6846 28.9041C18.3409 28.788 18.0008 28.6622 17.6661 28.5185C17.3181 28.3586 16.9592 28.2235 16.5922 28.1141C15.685 27.8811 14.7338 27.8795 13.8258 28.1096C13.4536 28.2167 13.0956 28.3417 12.7421 28.4952C12.2449 28.7041 11.9146 28.8443 11.7236 28.9041C11.3424 29.0157 10.947 29.0853 10.5471 29.1085C9.92843 29.1085 9.35177 28.9318 8.78046 28.5738L8.79564 28.5613ZM16.9546 6.58831C16.1459 6.99269 15.3737 7.16498 14.6069 7.10874C14.4864 6.33658 14.6069 5.54657 14.9274 4.68158C15.2002 3.94876 15.6033 3.27133 16.1173 2.682C16.66 2.06162 17.3186 1.55312 18.0562 1.185C18.8417 0.780624 19.5907 0.561921 20.3066 0.529785C20.3994 1.33854 20.3066 2.13391 20.0093 2.99355C19.7342 3.75346 19.3318 4.46103 18.8194 5.08596C18.2963 5.70719 17.6544 6.21767 16.9314 6.58742L16.9546 6.58831Z" fill="black"/>
</g>
<defs>
<clipPath id="clip0_2_295">
<rect width="28.5653" height="28.5653" fill="white" transform="translate(0.370605 0.53064)"/>
</clipPath>
</defs>
</svg>
