<svg width="26" height="25" viewBox="0 0 26 25" fill="none" xmlns="http://www.w3.org/2000/svg">
<path d="M4.56526 14.2915C5.41821 10.1956 8.98384 7.28536 12.9947 7.28536C17.0043 7.28536 20.5699 10.1956 21.4241 14.2915C21.458 14.4541 21.555 14.5965 21.6938 14.6875C21.8327 14.7785 22.002 14.8106 22.1645 14.7768C22.3271 14.743 22.4695 14.646 22.5605 14.5071C22.6515 14.3683 22.6836 14.1989 22.6498 14.0364C21.678 9.37771 17.6134 6.0347 12.9947 6.0347C8.37602 6.0347 4.31138 9.37771 3.33962 14.0364C3.30578 14.1989 3.3379 14.3683 3.4289 14.5071C3.51991 14.646 3.66234 14.743 3.82487 14.7768C3.9874 14.8106 4.15672 14.7785 4.29557 14.6875C4.43442 14.5965 4.53143 14.4541 4.56526 14.2915ZM12.9822 9.78667C14.1431 9.78667 15.2565 10.2479 16.0774 11.0688C16.8983 11.8897 17.3595 13.003 17.3595 14.164C17.3595 15.3249 16.8983 16.4383 16.0774 17.2592C15.2565 18.0801 14.1431 18.5413 12.9822 18.5413C11.8213 18.5413 10.7079 18.0801 9.88697 17.2592C9.06607 16.4383 8.60489 15.3249 8.60489 14.164C8.60489 13.003 9.06607 11.8897 9.88697 11.0688C10.7079 10.2479 11.8213 9.78667 12.9822 9.78667Z" fill="#6A707C"/>
</svg>
