<svg width="29" height="30" viewBox="0 0 29 30" fill="none" xmlns="http://www.w3.org/2000/svg">
<path d="M7.06419 17.5222L6.16026 20.8967L2.85643 20.9666C1.86907 19.1352 1.30902 17.04 1.30902 14.8134C1.30902 12.6603 1.83265 10.6299 2.76082 8.84204H2.76153L5.70287 9.38129L6.99135 12.305C6.72167 13.0912 6.57469 13.9352 6.57469 14.8134C6.57479 15.7665 6.74744 16.6797 7.06419 17.5222Z" fill="#FBBB00"/>
<path d="M27.0507 12.3877C27.1998 13.1731 27.2775 13.9843 27.2775 14.8133C27.2775 15.7429 27.1798 16.6497 26.9936 17.5243C26.3615 20.5007 24.7099 23.0997 22.422 24.9389L22.4213 24.9382L18.7166 24.7492L18.1922 21.476C19.7104 20.5856 20.8968 19.1923 21.5218 17.5243H14.5787V12.3877H21.623H27.0507Z" fill="#518EF8"/>
<path d="M22.4213 24.9382L22.422 24.9389C20.1968 26.7274 17.3702 27.7976 14.2933 27.7976C9.34857 27.7976 5.04951 25.0338 2.85645 20.9666L7.0642 17.5222C8.16071 20.4486 10.9837 22.5319 14.2933 22.5319C15.7158 22.5319 17.0485 22.1473 18.1921 21.476L22.4213 24.9382Z" fill="#28B446"/>
<path d="M22.581 4.81832L18.3747 8.26198C17.1912 7.52218 15.7921 7.09482 14.2932 7.09482C10.9088 7.09482 8.03296 9.27359 6.99138 12.305L2.76151 8.84201H2.7608C4.92177 4.67564 9.27504 1.8291 14.2932 1.8291C17.4437 1.8291 20.3323 2.95133 22.581 4.81832Z" fill="#F14336"/>
</svg>
